<svg viewBox="0 0 744.09449 744.09448" height="18px" width="18px">
  <g transform="translate(-0.07105284,1.3309574)">
    <path
       d="m 69.506108,14.926577 644.456392,0 0,142.470133 -413.21619,417.19924 428.29707,0 0,153.16755 -699.250263,0 0,-147.81884 408.691923,-412.82302 -368.978932,0 0,-152.195063 z"
       style="fill:#ffffff;stroke:#000000;stroke-width:30;stroke-linecap:butt;stroke-linejoin:miter;stroke-miterlimit:4;stroke-dasharray:none;" />
    <path
       d="m 464.44625,416.4944 260.81502,0 0,66.07147 -163.27794,0 0,49.18421 151.46177,0 0,63.11619 -151.46177,0 0,61.0053 168.0044,0 0,70.0822 -265.54148,0 0,-309.45937 z"
       style="fill:#ffffff;stroke:#000000;stroke-width:30;stroke-linecap:butt;stroke-linejoin:miter;stroke-miterlimit:4;stroke-dasharray:none;" />
    <path
       d="m 15.071053,106.51088 270.700487,0 q 67.67512,0 103.74724,38.22609 36.39134,38.22611 36.39134,94.65511 0,47.32756 -25.857,81.18496 -17.23801,22.57161 -50.43713,35.6777 50.43713,13.8342 74.05957,47.6916 23.94168,33.49335 23.94168,84.46148 0,41.50263 -16.91879,74.63192 -16.91878,33.12928 -46.28723,52.42437 -18.19566,12.01392 -54.90623,17.47478 -48.841,7.28116 -64.80212,7.28116 l -249.631817,0 0,-533.70917 z m 145.884577,209.33341 62.88679,0 q 33.83756,0 46.92568,-13.10609 13.40733,-13.47016 13.40733,-38.59017 0,-23.29971 -13.40733,-36.4058 -13.08812,-13.1061 -45.96801,-13.1061 l -63.84446,0 0,101.20816 z m 0,209.69746 73.74035,0 q 37.349,0 52.67167,-14.92638 15.32267,-15.29044 15.32267,-40.7745 0,-23.66379 -15.32267,-37.86205 -15.00344,-14.56232 -52.9909,-14.56232 l -73.42112,0 0,108.12525 z"
       style="fill:#ffffff;stroke:#000000;stroke-width:30;stroke-linecap:butt;stroke-linejoin:miter;stroke-miterlimit:4;stroke-dasharray:none;" />
  </g>
</svg>
